STARTFONT 2.1
COMMENT Copyright (c) 2011,  Aaron Christianson  ninjaaron@gmail.com
COMMENT licenced under the OFL 1.1
FONT -aaron-bitocra13-Medium-R-Normal--13-130-84-84-C-90-ISO8859-1
SIZE 13 84 84
FONTBOUNDINGBOX 7 13 0 -2
STARTPROPERTIES 20
POINT_SIZE 130
PIXEL_SIZE 13
RESOLUTION_X 84
SLANT "R"
RESOLUTION_Y 84
FONT_ASCENT 11
FONT_DESCENT 2
AVERAGE_WIDTH 90
SPACING "C"
FOUNDRY "aaron"
FAMILY_NAME "bitocra13"
COPYRIGHT "OLF 1.1 Aaron Christianson, 2011"
FACE_NAME "bitocra13"
WEIGHT_NAME "Medium"
SETWIDTH_NAME "Normal"
ADD_STYLE_NAME ""
CHARSET_REGISTRY "ISO8859"
CHARSET_ENCODING "1"
_GBDFED_INFO "Edited with gbdfed 1.6."
QUAD_WIDTH 7
ENDPROPERTIES
CHARS 189
STARTCHAR char32
ENCODING 32
SWIDTH 461 0
DWIDTH 7 0
BBX 7 13 0 -2
BITMAP
00
00
00
00
00
00
00
00
00
00
00
00
00
ENDCHAR
STARTCHAR char33
ENCODING 33
SWIDTH 461 0
DWIDTH 7 0
BBX 7 13 0 -2
BITMAP
00
00
00
20
20
20
20
20
00
20
20
00
00
ENDCHAR
STARTCHAR char34
ENCODING 34
SWIDTH 461 0
DWIDTH 7 0
BBX 7 13 0 -2
BITMAP
00
00
50
50
50
00
00
00
00
00
00
00
00
ENDCHAR
STARTCHAR char35
ENCODING 35
SWIDTH 461 0
DWIDTH 7 0
BBX 7 13 0 -2
BITMAP
00
00
00
00
00
50
F8
50
F8
50
00
00
00
ENDCHAR
STARTCHAR char36
ENCODING 36
SWIDTH 461 0
DWIDTH 7 0
BBX 7 13 0 -2
BITMAP
00
00
00
00
20
F8
A0
F8
28
F8
20
00
00
ENDCHAR
STARTCHAR char37
ENCODING 37
SWIDTH 461 0
DWIDTH 7 0
BBX 7 13 0 -2
BITMAP
00
00
00
00
00
C8
D8
30
60
D8
98
00
00
ENDCHAR
STARTCHAR char38
ENCODING 38
SWIDTH 461 0
DWIDTH 7 0
BBX 7 13 0 -2
BITMAP
00
00
00
70
80
40
A0
94
88
88
74
00
00
ENDCHAR
STARTCHAR char39
ENCODING 39
SWIDTH 461 0
DWIDTH 7 0
BBX 7 13 0 -2
BITMAP
00
00
10
30
20
00
00
00
00
00
00
00
00
ENDCHAR
STARTCHAR char40
ENCODING 40
SWIDTH 461 0
DWIDTH 7 0
BBX 7 13 0 -2
BITMAP
00
00
10
20
40
40
40
40
40
40
20
10
00
ENDCHAR
STARTCHAR char41
ENCODING 41
SWIDTH 461 0
DWIDTH 7 0
BBX 7 13 0 -2
BITMAP
00
00
40
20
10
10
10
10
10
10
20
40
00
ENDCHAR
STARTCHAR char42
ENCODING 42
SWIDTH 461 0
DWIDTH 7 0
BBX 7 13 0 -2
BITMAP
00
00
00
00
20
A8
70
70
A8
20
00
00
00
ENDCHAR
STARTCHAR char43
ENCODING 43
SWIDTH 461 0
DWIDTH 7 0
BBX 7 13 0 -2
BITMAP
00
00
00
00
00
20
20
F8
20
20
00
00
00
ENDCHAR
STARTCHAR char44
ENCODING 44
SWIDTH 461 0
DWIDTH 7 0
BBX 7 13 0 -2
BITMAP
00
00
00
00
00
00
00
00
00
70
10
10
10
ENDCHAR
STARTCHAR char45
ENCODING 45
SWIDTH 461 0
DWIDTH 7 0
BBX 7 13 0 -2
BITMAP
00
00
00
00
00
00
00
F8
00
00
00
00
00
ENDCHAR
STARTCHAR char46
ENCODING 46
SWIDTH 461 0
DWIDTH 7 0
BBX 7 13 0 -2
BITMAP
00
00
00
00
00
00
00
00
00
30
30
00
00
ENDCHAR
STARTCHAR char47
ENCODING 47
SWIDTH 461 0
DWIDTH 7 0
BBX 7 13 0 -2
BITMAP
00
00
08
08
10
10
20
20
40
40
80
80
00
ENDCHAR
STARTCHAR char48
ENCODING 48
SWIDTH 461 0
DWIDTH 7 0
BBX 7 13 0 -2
BITMAP
00
00
00
F8
88
88
A8
A8
88
88
F8
00
00
ENDCHAR
STARTCHAR char49
ENCODING 49
SWIDTH 461 0
DWIDTH 7 0
BBX 7 13 0 -2
BITMAP
00
00
00
60
20
20
20
20
28
28
78
00
00
ENDCHAR
STARTCHAR char50
ENCODING 50
SWIDTH 461 0
DWIDTH 7 0
BBX 7 13 0 -2
BITMAP
00
00
00
F8
08
08
F8
80
80
80
F8
00
00
ENDCHAR
STARTCHAR char51
ENCODING 51
SWIDTH 461 0
DWIDTH 7 0
BBX 7 13 0 -2
BITMAP
00
00
00
F8
08
08
78
08
08
08
F8
00
00
ENDCHAR
STARTCHAR char52
ENCODING 52
SWIDTH 461 0
DWIDTH 7 0
BBX 7 13 0 -2
BITMAP
00
00
00
80
90
90
90
F8
10
10
10
00
00
ENDCHAR
STARTCHAR char53
ENCODING 53
SWIDTH 461 0
DWIDTH 7 0
BBX 7 13 0 -2
BITMAP
00
00
00
F8
80
80
F8
08
08
08
F8
00
00
ENDCHAR
STARTCHAR char54
ENCODING 54
SWIDTH 461 0
DWIDTH 7 0
BBX 7 13 0 -2
BITMAP
00
00
00
E0
80
80
80
F8
88
88
F8
00
00
ENDCHAR
STARTCHAR char55
ENCODING 55
SWIDTH 461 0
DWIDTH 7 0
BBX 7 13 0 -2
BITMAP
00
00
00
F8
08
08
18
30
60
40
40
00
00
ENDCHAR
STARTCHAR char56
ENCODING 56
SWIDTH 461 0
DWIDTH 7 0
BBX 7 13 0 -2
BITMAP
00
00
00
78
48
48
F8
88
88
88
F8
00
00
ENDCHAR
STARTCHAR char57
ENCODING 57
SWIDTH 461 0
DWIDTH 7 0
BBX 7 13 0 -2
BITMAP
00
00
00
F8
88
88
F8
08
08
08
38
00
00
ENDCHAR
STARTCHAR char58
ENCODING 58
SWIDTH 461 0
DWIDTH 7 0
BBX 7 13 0 -2
BITMAP
00
00
00
00
00
30
30
00
00
30
30
00
00
ENDCHAR
STARTCHAR char59
ENCODING 59
SWIDTH 461 0
DWIDTH 7 0
BBX 7 13 0 -2
BITMAP
00
00
00
00
00
60
60
00
00
70
10
10
10
ENDCHAR
STARTCHAR char60
ENCODING 60
SWIDTH 461 0
DWIDTH 7 0
BBX 7 13 0 -2
BITMAP
00
00
00
00
18
30
60
C0
60
30
18
00
00
ENDCHAR
STARTCHAR char61
ENCODING 61
SWIDTH 461 0
DWIDTH 7 0
BBX 7 13 0 -2
BITMAP
00
00
00
00
00
00
00
F0
00
F0
00
00
00
ENDCHAR
STARTCHAR char62
ENCODING 62
SWIDTH 461 0
DWIDTH 7 0
BBX 7 13 0 -2
BITMAP
00
00
00
00
C0
60
30
18
30
60
C0
00
00
ENDCHAR
STARTCHAR char63
ENCODING 63
SWIDTH 461 0
DWIDTH 7 0
BBX 7 13 0 -2
BITMAP
00
00
F8
88
88
08
38
20
20
00
20
20
00
ENDCHAR
STARTCHAR char64
ENCODING 64
SWIDTH 461 0
DWIDTH 7 0
BBX 7 13 0 -2
BITMAP
00
00
FC
84
84
04
04
F4
94
94
FC
00
00
ENDCHAR
STARTCHAR char65
ENCODING 65
SWIDTH 461 0
DWIDTH 7 0
BBX 7 13 0 -2
BITMAP
00
00
00
78
88
88
88
88
F8
88
88
00
00
ENDCHAR
STARTCHAR char66
ENCODING 66
SWIDTH 461 0
DWIDTH 7 0
BBX 7 13 0 -2
BITMAP
00
00
00
F0
90
90
F8
88
88
88
F8
00
00
ENDCHAR
STARTCHAR char67
ENCODING 67
SWIDTH 461 0
DWIDTH 7 0
BBX 7 13 0 -2
BITMAP
00
00
00
78
80
80
80
80
80
80
F8
00
00
ENDCHAR
STARTCHAR char68
ENCODING 68
SWIDTH 461 0
DWIDTH 7 0
BBX 7 13 0 -2
BITMAP
00
00
00
F8
44
44
44
44
44
44
F8
00
00
ENDCHAR
STARTCHAR char69
ENCODING 69
SWIDTH 461 0
DWIDTH 7 0
BBX 7 13 0 -2
BITMAP
00
00
00
F8
80
80
F0
80
80
80
F8
00
00
ENDCHAR
STARTCHAR char70
ENCODING 70
SWIDTH 461 0
DWIDTH 7 0
BBX 7 13 0 -2
BITMAP
00
00
00
F8
80
80
F0
80
80
80
80
00
00
ENDCHAR
STARTCHAR char71
ENCODING 71
SWIDTH 461 0
DWIDTH 7 0
BBX 7 13 0 -2
BITMAP
00
00
00
78
80
80
80
98
88
88
F8
00
00
ENDCHAR
STARTCHAR char72
ENCODING 72
SWIDTH 461 0
DWIDTH 7 0
BBX 7 13 0 -2
BITMAP
00
00
00
88
88
88
88
F8
88
88
88
00
00
ENDCHAR
STARTCHAR char73
ENCODING 73
SWIDTH 461 0
DWIDTH 7 0
BBX 7 13 0 -2
BITMAP
00
00
00
F8
20
20
20
20
20
20
F8
00
00
ENDCHAR
STARTCHAR char74
ENCODING 74
SWIDTH 461 0
DWIDTH 7 0
BBX 7 13 0 -2
BITMAP
00
00
00
38
08
08
08
08
08
88
F8
00
00
ENDCHAR
STARTCHAR char75
ENCODING 75
SWIDTH 461 0
DWIDTH 7 0
BBX 7 13 0 -2
BITMAP
00
00
00
88
88
88
88
F0
88
88
88
00
00
ENDCHAR
STARTCHAR char76
ENCODING 76
SWIDTH 461 0
DWIDTH 7 0
BBX 7 13 0 -2
BITMAP
00
00
00
80
80
80
80
80
80
80
F8
00
00
ENDCHAR
STARTCHAR char77
ENCODING 77
SWIDTH 461 0
DWIDTH 7 0
BBX 7 13 0 -2
BITMAP
00
00
00
88
D8
F8
A8
88
88
88
88
00
00
ENDCHAR
STARTCHAR char78
ENCODING 78
SWIDTH 461 0
DWIDTH 7 0
BBX 7 13 0 -2
BITMAP
00
00
00
88
88
C8
E8
B8
98
88
88
00
00
ENDCHAR
STARTCHAR char79
ENCODING 79
SWIDTH 461 0
DWIDTH 7 0
BBX 7 13 0 -2
BITMAP
00
00
00
F8
88
88
88
88
88
88
F8
00
00
ENDCHAR
STARTCHAR char80
ENCODING 80
SWIDTH 461 0
DWIDTH 7 0
BBX 7 13 0 -2
BITMAP
00
00
00
FC
44
44
44
78
40
40
40
00
00
ENDCHAR
STARTCHAR char81
ENCODING 81
SWIDTH 461 0
DWIDTH 7 0
BBX 7 13 0 -2
BITMAP
00
00
00
78
88
88
88
88
C8
A8
F0
18
00
ENDCHAR
STARTCHAR char82
ENCODING 82
SWIDTH 461 0
DWIDTH 7 0
BBX 7 13 0 -2
BITMAP
00
00
00
FC
44
44
44
78
44
44
44
00
00
ENDCHAR
STARTCHAR char83
ENCODING 83
SWIDTH 461 0
DWIDTH 7 0
BBX 7 13 0 -2
BITMAP
00
00
00
78
80
80
80
F8
08
08
F8
00
00
ENDCHAR
STARTCHAR char84
ENCODING 84
SWIDTH 461 0
DWIDTH 7 0
BBX 7 13 0 -2
BITMAP
00
00
00
F8
A8
20
20
20
20
20
20
00
00
ENDCHAR
STARTCHAR char85
ENCODING 85
SWIDTH 461 0
DWIDTH 7 0
BBX 7 13 0 -2
BITMAP
00
00
00
88
88
88
88
88
88
88
F8
00
00
ENDCHAR
STARTCHAR char86
ENCODING 86
SWIDTH 461 0
DWIDTH 7 0
BBX 7 13 0 -2
BITMAP
00
00
00
88
88
88
98
B0
E0
C0
80
00
00
ENDCHAR
STARTCHAR char87
ENCODING 87
SWIDTH 461 0
DWIDTH 7 0
BBX 7 13 0 -2
BITMAP
00
00
00
88
88
88
88
A8
F8
D8
88
00
00
ENDCHAR
STARTCHAR char88
ENCODING 88
SWIDTH 461 0
DWIDTH 7 0
BBX 7 13 0 -2
BITMAP
00
00
00
88
88
88
70
70
88
88
88
00
00
ENDCHAR
STARTCHAR char89
ENCODING 89
SWIDTH 461 0
DWIDTH 7 0
BBX 7 13 0 -2
BITMAP
00
00
00
88
88
88
D8
70
20
20
20
00
00
ENDCHAR
STARTCHAR char90
ENCODING 90
SWIDTH 461 0
DWIDTH 7 0
BBX 7 13 0 -2
BITMAP
00
00
00
F8
08
18
30
60
C0
80
F8
00
00
ENDCHAR
STARTCHAR char91
ENCODING 91
SWIDTH 461 0
DWIDTH 7 0
BBX 7 13 0 -2
BITMAP
00
00
F8
A0
A0
A0
A0
A0
A0
A0
A0
F8
00
ENDCHAR
STARTCHAR char92
ENCODING 92
SWIDTH 461 0
DWIDTH 7 0
BBX 7 13 0 -2
BITMAP
00
00
80
80
40
40
20
20
10
10
08
08
00
ENDCHAR
STARTCHAR char93
ENCODING 93
SWIDTH 461 0
DWIDTH 7 0
BBX 7 13 0 -2
BITMAP
00
00
F8
28
28
28
28
28
28
28
28
F8
00
ENDCHAR
STARTCHAR char94
ENCODING 94
SWIDTH 461 0
DWIDTH 7 0
BBX 7 13 0 -2
BITMAP
00
00
00
20
70
D8
88
00
00
00
00
00
00
ENDCHAR
STARTCHAR char95
ENCODING 95
SWIDTH 461 0
DWIDTH 7 0
BBX 7 13 0 -2
BITMAP
00
00
00
00
00
00
00
00
00
00
FC
00
00
ENDCHAR
STARTCHAR char96
ENCODING 96
SWIDTH 461 0
DWIDTH 7 0
BBX 7 13 0 -2
BITMAP
00
00
40
60
20
00
00
00
00
00
00
00
00
ENDCHAR
STARTCHAR char97
ENCODING 97
SWIDTH 461 0
DWIDTH 7 0
BBX 7 13 0 -2
BITMAP
00
00
00
00
00
78
08
F8
88
88
F8
00
00
ENDCHAR
STARTCHAR char98
ENCODING 98
SWIDTH 461 0
DWIDTH 7 0
BBX 7 13 0 -2
BITMAP
00
00
80
80
80
F8
88
88
88
88
F8
00
00
ENDCHAR
STARTCHAR char99
ENCODING 99
SWIDTH 461 0
DWIDTH 7 0
BBX 7 13 0 -2
BITMAP
00
00
00
00
00
78
80
80
80
80
F8
00
00
ENDCHAR
STARTCHAR char100
ENCODING 100
SWIDTH 461 0
DWIDTH 7 0
BBX 7 13 0 -2
BITMAP
00
00
08
08
08
F8
88
88
88
88
F8
00
00
ENDCHAR
STARTCHAR char101
ENCODING 101
SWIDTH 461 0
DWIDTH 7 0
BBX 7 13 0 -2
BITMAP
00
00
00
00
00
F8
88
88
F8
80
F8
00
00
ENDCHAR
STARTCHAR char102
ENCODING 102
SWIDTH 461 0
DWIDTH 7 0
BBX 7 13 0 -2
BITMAP
00
00
38
40
40
40
78
40
40
40
40
00
00
ENDCHAR
STARTCHAR char103
ENCODING 103
SWIDTH 461 0
DWIDTH 7 0
BBX 7 13 0 -2
BITMAP
00
00
00
00
00
F8
88
88
88
F8
08
08
F8
ENDCHAR
STARTCHAR char104
ENCODING 104
SWIDTH 461 0
DWIDTH 7 0
BBX 7 13 0 -2
BITMAP
00
00
80
80
80
F8
88
88
88
88
88
00
00
ENDCHAR
STARTCHAR char105
ENCODING 105
SWIDTH 461 0
DWIDTH 7 0
BBX 7 13 0 -2
BITMAP
00
00
00
20
00
60
20
20
20
20
70
00
00
ENDCHAR
STARTCHAR char106
ENCODING 106
SWIDTH 461 0
DWIDTH 7 0
BBX 7 13 0 -2
BITMAP
00
00
00
10
00
30
10
10
10
10
10
90
F0
ENDCHAR
STARTCHAR char107
ENCODING 107
SWIDTH 461 0
DWIDTH 7 0
BBX 7 13 0 -2
BITMAP
00
00
80
80
88
88
88
F0
88
88
88
00
00
ENDCHAR
STARTCHAR char108
ENCODING 108
SWIDTH 461 0
DWIDTH 7 0
BBX 7 13 0 -2
BITMAP
00
00
60
20
20
20
20
20
20
20
30
00
00
ENDCHAR
STARTCHAR char109
ENCODING 109
SWIDTH 461 0
DWIDTH 7 0
BBX 7 13 0 -2
BITMAP
00
00
00
00
00
F8
A8
A8
A8
88
88
00
00
ENDCHAR
STARTCHAR char110
ENCODING 110
SWIDTH 461 0
DWIDTH 7 0
BBX 7 13 0 -2
BITMAP
00
00
00
00
00
F8
88
88
88
88
88
00
00
ENDCHAR
STARTCHAR char111
ENCODING 111
SWIDTH 461 0
DWIDTH 7 0
BBX 7 13 0 -2
BITMAP
00
00
00
00
00
F8
88
88
88
88
F8
00
00
ENDCHAR
STARTCHAR char112
ENCODING 112
SWIDTH 461 0
DWIDTH 7 0
BBX 7 13 0 -2
BITMAP
00
00
00
00
00
F8
88
88
88
F8
80
80
80
ENDCHAR
STARTCHAR char113
ENCODING 113
SWIDTH 461 0
DWIDTH 7 0
BBX 7 13 0 -2
BITMAP
00
00
00
00
00
F8
88
88
88
F8
08
08
08
ENDCHAR
STARTCHAR char114
ENCODING 114
SWIDTH 461 0
DWIDTH 7 0
BBX 7 13 0 -2
BITMAP
00
00
00
00
00
F8
88
80
80
80
80
00
00
ENDCHAR
STARTCHAR char115
ENCODING 115
SWIDTH 461 0
DWIDTH 7 0
BBX 7 13 0 -2
BITMAP
00
00
00
00
00
78
80
F0
08
08
F8
00
00
ENDCHAR
STARTCHAR char116
ENCODING 116
SWIDTH 461 0
DWIDTH 7 0
BBX 7 13 0 -2
BITMAP
00
00
40
40
40
78
40
40
40
48
78
00
00
ENDCHAR
STARTCHAR char117
ENCODING 117
SWIDTH 461 0
DWIDTH 7 0
BBX 7 13 0 -2
BITMAP
00
00
00
00
00
88
88
88
88
88
F8
00
00
ENDCHAR
STARTCHAR char118
ENCODING 118
SWIDTH 461 0
DWIDTH 7 0
BBX 7 13 0 -2
BITMAP
00
00
00
00
00
88
88
88
D8
70
20
00
00
ENDCHAR
STARTCHAR char119
ENCODING 119
SWIDTH 461 0
DWIDTH 7 0
BBX 7 13 0 -2
BITMAP
00
00
00
00
00
88
88
A8
A8
A8
F8
00
00
ENDCHAR
STARTCHAR char120
ENCODING 120
SWIDTH 461 0
DWIDTH 7 0
BBX 7 13 0 -2
BITMAP
00
00
00
00
00
88
88
70
70
88
88
00
00
ENDCHAR
STARTCHAR char121
ENCODING 121
SWIDTH 461 0
DWIDTH 7 0
BBX 7 13 0 -2
BITMAP
00
00
00
00
00
88
88
88
88
F8
08
08
F8
ENDCHAR
STARTCHAR char122
ENCODING 122
SWIDTH 461 0
DWIDTH 7 0
BBX 7 13 0 -2
BITMAP
00
00
00
00
00
F8
08
30
60
80
F8
00
00
ENDCHAR
STARTCHAR char123
ENCODING 123
SWIDTH 461 0
DWIDTH 7 0
BBX 7 13 0 -2
BITMAP
00
00
30
40
40
40
C0
40
40
40
40
30
00
ENDCHAR
STARTCHAR char124
ENCODING 124
SWIDTH 461 0
DWIDTH 7 0
BBX 7 13 0 -2
BITMAP
00
00
20
20
20
20
20
20
20
20
20
20
00
ENDCHAR
STARTCHAR char125
ENCODING 125
SWIDTH 461 0
DWIDTH 7 0
BBX 7 13 0 -2
BITMAP
00
00
C0
20
20
20
30
20
20
20
20
C0
00
ENDCHAR
STARTCHAR char126
ENCODING 126
SWIDTH 461 0
DWIDTH 7 0
BBX 7 13 0 -2
BITMAP
00
00
00
00
00
00
E8
A8
B8
00
00
00
00
ENDCHAR
STARTCHAR char161
ENCODING 161
SWIDTH 461 0
DWIDTH 7 0
BBX 7 13 0 -2
BITMAP
00
00
00
20
20
00
20
20
20
20
20
00
00
ENDCHAR
STARTCHAR char162
ENCODING 162
SWIDTH 461 0
DWIDTH 7 0
BBX 7 13 0 -2
BITMAP
00
00
00
10
78
90
A0
A0
A0
78
40
00
00
ENDCHAR
STARTCHAR char163
ENCODING 163
SWIDTH 461 0
DWIDTH 7 0
BBX 7 13 0 -2
BITMAP
00
00
00
38
40
40
40
F0
40
40
F8
00
00
ENDCHAR
STARTCHAR char164
ENCODING 164
SWIDTH 461 0
DWIDTH 7 0
BBX 7 13 0 -2
BITMAP
00
00
00
00
00
84
78
48
48
78
84
00
00
ENDCHAR
STARTCHAR char165
ENCODING 165
SWIDTH 461 0
DWIDTH 7 0
BBX 7 13 0 -2
BITMAP
00
00
00
88
D8
70
20
70
20
70
20
00
00
ENDCHAR
STARTCHAR char166
ENCODING 166
SWIDTH 461 0
DWIDTH 7 0
BBX 7 13 0 -2
BITMAP
00
00
20
20
20
20
20
20
20
20
20
20
00
ENDCHAR
STARTCHAR char167
ENCODING 167
SWIDTH 461 0
DWIDTH 7 0
BBX 7 13 0 -2
BITMAP
00
00
00
3C
40
70
88
44
38
08
F0
00
00
ENDCHAR
STARTCHAR char168
ENCODING 168
SWIDTH 461 0
DWIDTH 7 0
BBX 7 13 0 -2
BITMAP
00
48
00
00
00
00
00
00
00
00
00
00
00
ENDCHAR
STARTCHAR char169
ENCODING 169
SWIDTH 461 0
DWIDTH 7 0
BBX 7 13 0 -2
BITMAP
00
00
00
38
44
9A
A2
9A
44
38
00
00
00
ENDCHAR
STARTCHAR char170
ENCODING 170
SWIDTH 461 0
DWIDTH 7 0
BBX 7 13 0 -2
BITMAP
00
00
00
70
10
F0
90
F0
00
00
00
00
00
ENDCHAR
STARTCHAR char171
ENCODING 171
SWIDTH 461 0
DWIDTH 7 0
BBX 7 13 0 -2
BITMAP
00
00
00
00
00
48
90
48
00
00
00
00
00
ENDCHAR
STARTCHAR char172
ENCODING 172
SWIDTH 461 0
DWIDTH 7 0
BBX 7 13 0 -2
BITMAP
00
00
00
00
00
00
00
00
F8
08
08
00
00
ENDCHAR
STARTCHAR char174
ENCODING 174
SWIDTH 461 0
DWIDTH 7 0
BBX 7 13 0 -2
BITMAP
00
00
00
38
44
BA
B2
AA
44
38
00
00
00
ENDCHAR
STARTCHAR char175
ENCODING 175
SWIDTH 461 0
DWIDTH 7 0
BBX 7 13 0 -2
BITMAP
00
00
00
78
00
00
00
00
00
00
00
00
00
ENDCHAR
STARTCHAR char176
ENCODING 176
SWIDTH 461 0
DWIDTH 7 0
BBX 7 13 0 -2
BITMAP
00
00
78
48
48
78
00
00
00
00
00
00
00
ENDCHAR
STARTCHAR char177
ENCODING 177
SWIDTH 461 0
DWIDTH 7 0
BBX 7 13 0 -2
BITMAP
00
00
00
00
20
20
F8
20
20
00
F8
00
00
ENDCHAR
STARTCHAR char178
ENCODING 178
SWIDTH 461 0
DWIDTH 7 0
BBX 7 13 0 -2
BITMAP
00
00
F0
10
F0
80
F0
00
00
00
00
00
00
ENDCHAR
STARTCHAR char179
ENCODING 179
SWIDTH 461 0
DWIDTH 7 0
BBX 7 13 0 -2
BITMAP
00
00
F0
10
70
10
F0
00
00
00
00
00
00
ENDCHAR
STARTCHAR char180
ENCODING 180
SWIDTH 461 0
DWIDTH 7 0
BBX 7 13 0 -2
BITMAP
00
10
20
00
00
00
00
00
00
00
00
00
00
ENDCHAR
STARTCHAR char181
ENCODING 181
SWIDTH 461 0
DWIDTH 7 0
BBX 7 13 0 -2
BITMAP
00
00
00
00
00
88
88
88
D8
F8
A8
80
80
ENDCHAR
STARTCHAR char182
ENCODING 182
SWIDTH 461 0
DWIDTH 7 0
BBX 7 13 0 -2
BITMAP
00
00
00
78
E8
E8
E8
68
28
28
28
28
00
ENDCHAR
STARTCHAR char183
ENCODING 183
SWIDTH 461 0
DWIDTH 7 0
BBX 7 13 0 -2
BITMAP
00
00
00
00
00
00
00
30
30
00
00
00
00
ENDCHAR
STARTCHAR char184
ENCODING 184
SWIDTH 461 0
DWIDTH 7 0
BBX 7 13 0 -2
BITMAP
00
00
00
00
00
00
00
00
20
10
70
00
00
ENDCHAR
STARTCHAR char185
ENCODING 185
SWIDTH 461 0
DWIDTH 7 0
BBX 7 13 0 -2
BITMAP
00
00
C0
40
40
50
50
F0
00
00
00
00
00
ENDCHAR
STARTCHAR char186
ENCODING 186
SWIDTH 461 0
DWIDTH 7 0
BBX 7 13 0 -2
BITMAP
00
00
30
48
48
30
00
00
00
00
00
00
00
ENDCHAR
STARTCHAR char187
ENCODING 187
SWIDTH 461 0
DWIDTH 7 0
BBX 7 13 0 -2
BITMAP
00
00
00
00
00
90
48
90
00
00
00
00
00
ENDCHAR
STARTCHAR char188
ENCODING 188
SWIDTH 461 0
DWIDTH 7 0
BBX 7 13 0 -2
BITMAP
00
C0
40
40
40
E4
14
14
1C
04
04
00
00
ENDCHAR
STARTCHAR char189
ENCODING 189
SWIDTH 461 0
DWIDTH 7 0
BBX 7 13 0 -2
BITMAP
00
C0
40
40
40
E0
1E
02
1E
10
1E
00
00
ENDCHAR
STARTCHAR char190
ENCODING 190
SWIDTH 461 0
DWIDTH 7 0
BBX 7 13 0 -2
BITMAP
00
F0
10
70
10
F4
14
14
1C
04
04
00
00
ENDCHAR
STARTCHAR char191
ENCODING 191
SWIDTH 461 0
DWIDTH 7 0
BBX 7 13 0 -2
BITMAP
00
00
20
20
00
20
20
E0
80
88
88
F8
00
ENDCHAR
STARTCHAR char192
ENCODING 192
SWIDTH 461 0
DWIDTH 7 0
BBX 7 13 0 -2
BITMAP
00
40
20
78
88
88
88
88
F8
88
88
00
00
ENDCHAR
STARTCHAR char193
ENCODING 193
SWIDTH 461 0
DWIDTH 7 0
BBX 7 13 0 -2
BITMAP
00
10
20
78
88
88
88
88
F8
88
88
00
00
ENDCHAR
STARTCHAR char194
ENCODING 194
SWIDTH 461 0
DWIDTH 7 0
BBX 7 13 0 -2
BITMAP
20
50
00
78
88
88
88
88
F8
88
88
00
00
ENDCHAR
STARTCHAR char195
ENCODING 195
SWIDTH 461 0
DWIDTH 7 0
BBX 7 13 0 -2
BITMAP
28
50
00
78
88
88
88
88
F8
88
88
00
00
ENDCHAR
STARTCHAR char196
ENCODING 196
SWIDTH 461 0
DWIDTH 7 0
BBX 7 13 0 -2
BITMAP
00
50
00
78
88
88
88
88
F8
88
88
00
00
ENDCHAR
STARTCHAR char197
ENCODING 197
SWIDTH 461 0
DWIDTH 7 0
BBX 7 13 0 -2
BITMAP
20
50
20
78
88
88
88
88
F8
88
88
00
00
ENDCHAR
STARTCHAR char198
ENCODING 198
SWIDTH 461 0
DWIDTH 7 0
BBX 7 13 0 -2
BITMAP
00
00
00
7E
90
90
9C
90
F0
90
9E
00
00
ENDCHAR
STARTCHAR char199
ENCODING 199
SWIDTH 461 0
DWIDTH 7 0
BBX 7 13 0 -2
BITMAP
00
00
00
78
80
80
80
80
80
80
F8
10
30
ENDCHAR
STARTCHAR char200
ENCODING 200
SWIDTH 461 0
DWIDTH 7 0
BBX 7 13 0 -2
BITMAP
00
40
20
F8
80
80
F0
80
80
80
F8
00
00
ENDCHAR
STARTCHAR char201
ENCODING 201
SWIDTH 461 0
DWIDTH 7 0
BBX 7 13 0 -2
BITMAP
00
10
20
F8
80
80
F0
80
80
80
F8
00
00
ENDCHAR
STARTCHAR char202
ENCODING 202
SWIDTH 461 0
DWIDTH 7 0
BBX 7 13 0 -2
BITMAP
20
50
00
F8
80
80
F0
80
80
80
F8
00
00
ENDCHAR
STARTCHAR char203
ENCODING 203
SWIDTH 461 0
DWIDTH 7 0
BBX 7 13 0 -2
BITMAP
00
50
00
F8
80
80
F0
80
80
80
F8
00
00
ENDCHAR
STARTCHAR char204
ENCODING 204
SWIDTH 461 0
DWIDTH 7 0
BBX 7 13 0 -2
BITMAP
00
40
20
F8
20
20
20
20
20
20
F8
00
00
ENDCHAR
STARTCHAR char205
ENCODING 205
SWIDTH 461 0
DWIDTH 7 0
BBX 7 13 0 -2
BITMAP
00
10
20
F8
20
20
20
20
20
20
F8
00
00
ENDCHAR
STARTCHAR char206
ENCODING 206
SWIDTH 461 0
DWIDTH 7 0
BBX 7 13 0 -2
BITMAP
20
50
00
F8
20
20
20
20
20
20
F8
00
00
ENDCHAR
STARTCHAR char207
ENCODING 207
SWIDTH 461 0
DWIDTH 7 0
BBX 7 13 0 -2
BITMAP
00
50
00
F8
20
20
20
20
20
20
F8
00
00
ENDCHAR
STARTCHAR char208
ENCODING 208
SWIDTH 461 0
DWIDTH 7 0
BBX 7 13 0 -2
BITMAP
00
00
00
F8
44
44
F4
44
44
44
F8
00
00
ENDCHAR
STARTCHAR char78
ENCODING 209
SWIDTH 461 0
DWIDTH 7 0
BBX 7 13 0 -2
BITMAP
00
28
50
88
88
C8
E8
B8
98
88
88
00
00
ENDCHAR
STARTCHAR char210
ENCODING 210
SWIDTH 461 0
DWIDTH 7 0
BBX 7 13 0 -2
BITMAP
00
40
20
F8
88
88
88
88
88
88
F8
00
00
ENDCHAR
STARTCHAR char211
ENCODING 211
SWIDTH 461 0
DWIDTH 7 0
BBX 7 13 0 -2
BITMAP
00
10
20
F8
88
88
88
88
88
88
F8
00
00
ENDCHAR
STARTCHAR char212
ENCODING 212
SWIDTH 461 0
DWIDTH 7 0
BBX 7 13 0 -2
BITMAP
20
50
00
F8
88
88
88
88
88
88
F8
00
00
ENDCHAR
STARTCHAR char213
ENCODING 213
SWIDTH 461 0
DWIDTH 7 0
BBX 7 13 0 -2
BITMAP
28
50
00
F8
88
88
88
88
88
88
F8
00
00
ENDCHAR
STARTCHAR char214
ENCODING 214
SWIDTH 461 0
DWIDTH 7 0
BBX 7 13 0 -2
BITMAP
00
50
00
F8
88
88
88
88
88
88
F8
00
00
ENDCHAR
STARTCHAR char215
ENCODING 215
SWIDTH 461 0
DWIDTH 7 0
BBX 7 13 0 -2
BITMAP
00
00
00
00
00
50
20
50
00
00
00
00
00
ENDCHAR
STARTCHAR char216
ENCODING 216
SWIDTH 461 0
DWIDTH 7 0
BBX 7 13 0 -2
BITMAP
00
00
08
F8
98
98
A8
A8
C8
C8
F8
80
00
ENDCHAR
STARTCHAR char217
ENCODING 217
SWIDTH 461 0
DWIDTH 7 0
BBX 7 13 0 -2
BITMAP
00
40
20
88
88
88
88
88
88
88
F8
00
00
ENDCHAR
STARTCHAR char217
ENCODING 218
SWIDTH 461 0
DWIDTH 7 0
BBX 7 13 0 -2
BITMAP
00
10
20
88
88
88
88
88
88
88
F8
00
00
ENDCHAR
STARTCHAR char217
ENCODING 219
SWIDTH 461 0
DWIDTH 7 0
BBX 7 13 0 -2
BITMAP
20
50
00
88
88
88
88
88
88
88
F8
00
00
ENDCHAR
STARTCHAR char217
ENCODING 220
SWIDTH 461 0
DWIDTH 7 0
BBX 7 13 0 -2
BITMAP
00
50
00
88
88
88
88
88
88
88
F8
00
00
ENDCHAR
STARTCHAR char221
ENCODING 221
SWIDTH 461 0
DWIDTH 7 0
BBX 7 13 0 -2
BITMAP
00
10
20
88
88
88
D8
70
20
20
20
00
00
ENDCHAR
STARTCHAR char222
ENCODING 222
SWIDTH 461 0
DWIDTH 7 0
BBX 7 13 0 -2
BITMAP
00
00
80
80
F8
88
88
88
F8
80
80
00
00
ENDCHAR
STARTCHAR char223
ENCODING 223
SWIDTH 461 0
DWIDTH 7 0
BBX 7 13 0 -2
BITMAP
00
00
70
90
90
90
88
88
88
88
98
80
80
ENDCHAR
STARTCHAR char97
ENCODING 224
SWIDTH 461 0
DWIDTH 7 0
BBX 7 13 0 -2
BITMAP
00
00
20
10
00
78
08
F8
88
88
F8
00
00
ENDCHAR
STARTCHAR char97
ENCODING 225
SWIDTH 461 0
DWIDTH 7 0
BBX 7 13 0 -2
BITMAP
00
00
10
20
00
78
08
F8
88
88
F8
00
00
ENDCHAR
STARTCHAR char97
ENCODING 226
SWIDTH 461 0
DWIDTH 7 0
BBX 7 13 0 -2
BITMAP
00
00
20
50
00
78
08
F8
88
88
F8
00
00
ENDCHAR
STARTCHAR char97
ENCODING 227
SWIDTH 461 0
DWIDTH 7 0
BBX 7 13 0 -2
BITMAP
00
00
28
50
00
78
08
F8
88
88
F8
00
00
ENDCHAR
STARTCHAR char97
ENCODING 228
SWIDTH 461 0
DWIDTH 7 0
BBX 7 13 0 -2
BITMAP
00
00
00
50
00
78
08
F8
88
88
F8
00
00
ENDCHAR
STARTCHAR char97
ENCODING 229
SWIDTH 461 0
DWIDTH 7 0
BBX 7 13 0 -2
BITMAP
00
30
48
48
30
78
08
F8
88
88
F8
00
00
ENDCHAR
STARTCHAR char97
ENCODING 230
SWIDTH 461 0
DWIDTH 7 0
BBX 7 13 0 -2
BITMAP
00
00
00
00
00
7E
12
F2
9E
90
FE
00
00
ENDCHAR
STARTCHAR char231
ENCODING 231
SWIDTH 461 0
DWIDTH 7 0
BBX 7 13 0 -2
BITMAP
00
00
00
00
00
78
80
80
80
80
F8
10
30
ENDCHAR
STARTCHAR char101
ENCODING 232
SWIDTH 461 0
DWIDTH 7 0
BBX 7 13 0 -2
BITMAP
00
00
00
40
20
F8
88
88
F8
80
F8
00
00
ENDCHAR
STARTCHAR char101
ENCODING 233
SWIDTH 461 0
DWIDTH 7 0
BBX 7 13 0 -2
BITMAP
00
00
00
10
20
F8
88
88
F8
80
F8
00
00
ENDCHAR
STARTCHAR char101
ENCODING 234
SWIDTH 461 0
DWIDTH 7 0
BBX 7 13 0 -2
BITMAP
00
00
20
50
00
F8
88
88
F8
80
F8
00
00
ENDCHAR
STARTCHAR char101
ENCODING 235
SWIDTH 461 0
DWIDTH 7 0
BBX 7 13 0 -2
BITMAP
00
00
00
50
00
F8
88
88
F8
80
F8
00
00
ENDCHAR
STARTCHAR char105
ENCODING 236
SWIDTH 461 0
DWIDTH 7 0
BBX 7 13 0 -2
BITMAP
00
00
40
20
00
60
20
20
20
20
70
00
00
ENDCHAR
STARTCHAR char105
ENCODING 237
SWIDTH 461 0
DWIDTH 7 0
BBX 7 13 0 -2
BITMAP
00
00
10
20
00
60
20
20
20
20
70
00
00
ENDCHAR
STARTCHAR char105
ENCODING 238
SWIDTH 461 0
DWIDTH 7 0
BBX 7 13 0 -2
BITMAP
00
00
20
50
00
60
20
20
20
20
70
00
00
ENDCHAR
STARTCHAR char105
ENCODING 239
SWIDTH 461 0
DWIDTH 7 0
BBX 7 13 0 -2
BITMAP
00
00
00
50
00
60
20
20
20
20
70
00
00
ENDCHAR
STARTCHAR char240
ENCODING 240
SWIDTH 461 0
DWIDTH 7 0
BBX 7 13 0 -2
BITMAP
00
00
20
18
30
08
08
F8
88
88
F8
00
00
ENDCHAR
STARTCHAR char241
ENCODING 241
SWIDTH 461 0
DWIDTH 7 0
BBX 7 13 0 -2
BITMAP
00
00
28
50
00
F8
88
88
88
88
88
00
00
ENDCHAR
STARTCHAR char111
ENCODING 242
SWIDTH 461 0
DWIDTH 7 0
BBX 7 13 0 -2
BITMAP
00
00
00
40
20
F8
88
88
88
88
F8
00
00
ENDCHAR
STARTCHAR char111
ENCODING 243
SWIDTH 461 0
DWIDTH 7 0
BBX 7 13 0 -2
BITMAP
00
00
00
10
20
F8
88
88
88
88
F8
00
00
ENDCHAR
STARTCHAR char111
ENCODING 244
SWIDTH 461 0
DWIDTH 7 0
BBX 7 13 0 -2
BITMAP
00
00
20
50
00
F8
88
88
88
88
F8
00
00
ENDCHAR
STARTCHAR char111
ENCODING 245
SWIDTH 461 0
DWIDTH 7 0
BBX 7 13 0 -2
BITMAP
00
00
28
50
00
F8
88
88
88
88
F8
00
00
ENDCHAR
STARTCHAR char111
ENCODING 246
SWIDTH 461 0
DWIDTH 7 0
BBX 7 13 0 -2
BITMAP
00
00
00
50
00
F8
88
88
88
88
F8
00
00
ENDCHAR
STARTCHAR char247
ENCODING 247
SWIDTH 461 0
DWIDTH 7 0
BBX 7 13 0 -2
BITMAP
00
00
00
00
00
20
00
F8
00
20
00
00
00
ENDCHAR
STARTCHAR char111
ENCODING 248
SWIDTH 461 0
DWIDTH 7 0
BBX 7 13 0 -2
BITMAP
00
00
00
00
08
F8
98
B8
E8
C8
F8
80
00
ENDCHAR
STARTCHAR char249
ENCODING 249
SWIDTH 461 0
DWIDTH 7 0
BBX 7 13 0 -2
BITMAP
00
00
00
40
20
88
88
88
88
88
F8
00
00
ENDCHAR
STARTCHAR char249
ENCODING 250
SWIDTH 461 0
DWIDTH 7 0
BBX 7 13 0 -2
BITMAP
00
00
00
10
20
88
88
88
88
88
F8
00
00
ENDCHAR
STARTCHAR char249
ENCODING 251
SWIDTH 461 0
DWIDTH 7 0
BBX 7 13 0 -2
BITMAP
00
00
20
50
00
88
88
88
88
88
F8
00
00
ENDCHAR
STARTCHAR char249
ENCODING 252
SWIDTH 461 0
DWIDTH 7 0
BBX 7 13 0 -2
BITMAP
00
00
00
50
00
88
88
88
88
88
F8
00
00
ENDCHAR
STARTCHAR char121
ENCODING 253
SWIDTH 461 0
DWIDTH 7 0
BBX 7 13 0 -2
BITMAP
00
00
00
10
20
88
88
88
88
F8
08
08
F8
ENDCHAR
STARTCHAR char254
ENCODING 254
SWIDTH 461 0
DWIDTH 7 0
BBX 7 13 0 -2
BITMAP
00
00
00
00
80
80
F8
88
88
88
F8
80
80
ENDCHAR
STARTCHAR char121
ENCODING 255
SWIDTH 461 0
DWIDTH 7 0
BBX 7 13 0 -2
BITMAP
00
00
00
50
00
88
88
88
88
F8
08
08
F8
ENDCHAR
ENDFONT
